# xmcd
#
# Track frame offsets:
#	150
#	11532
#	22407
#	39232
#	51495
#	62982
#	88337
#	98915
#	110150
#	122692
#	134550
#	145767
#	157380
#	170660
#	183517
#	193880
#	215822
#	227055
#	239200
#	251677
#	261210
#	274755
#	287922
#	300910
#	313617
#
# Disc length: 4377
#
# Revision: 2
# Processed by: cddbd v1.5.1PL0 Copyright (c) Steve Scherf et al.
# Submitted via: audiograbber 1.83.01
# Normalized: r1:DSETVAR1
#
DISCID=94111719
DTITLE=Various Artist - Megablues CD3
DYEAR=2001
DGENRE=Blues
TTITLE0=Muddy Waters - Gypsy Woman
TTITLE1=Eric Clapton - Snake Drive
TTITLE2=Albert King - Waterlemon Man
TTITLE3=Earl Hooker - Blue Guitar
TTITLE4=Chris Farlowe - Moanin'
TTITLE5=Junior Wells - Got My Mojo Working
TTITLE6=Jimmy Reed - Baby What You Want Me to Do
TTITLE7=John Lee Hooker - Boom Boom
TTITLE8=Doctor Ross - Come Back Baby
TTITLE9=Elmore James - I Can't Stop Loving You
TTITLE10=Sam Myers - You Don't Have To Go
TTITLE11=Rosco Gordon - No More Doggin'
TTITLE12=Lightnin' Hopkins - Rolling And Rolling
TTITLE13=Big Maceo - County Jail Blues
TTITLE14=Memphis Slim - Gotta Find My Baby
TTITLE15=Luther Allison - Sweet Home Chicago
TTITLE16=Pee-Wee Crayton - Blues After Hours
TTITLE17=Lazy Bill Lucas - My Baby's Gone
TTITLE18=T-Bone Walker - Stormy Monday Blues
TTITLE19=Willie Johnson - So Long Baby Goodbye
TTITLE20=Howlin' Wolf - Well That's All Right
TTITLE21=Rod Stewart and P.P. Arnold - Come Home Baby
TTITLE22=Boogie Jake - Bad Luck And Trouble
TTITLE23=Big Joe Williams - Going Back Home
TTITLE24=Screaming Jay Hawkins - It's Only Make Believe
EXTD=
EXTT0=
EXTT1=
EXTT2=
EXTT3=
EXTT4=
EXTT5=
EXTT6=
EXTT7=
EXTT8=
EXTT9=
EXTT10=
EXTT11=
EXTT12=
EXTT13=
EXTT14=
EXTT15=
EXTT16=
EXTT17=
EXTT18=
EXTT19=
EXTT20=
EXTT21=
EXTT22=
EXTT23=
EXTT24=
PLAYORDER=
